<svg xmlns="http://www.w3.org/2000/svg" id="Layer_1" enable-background="new 0 0 105 105" viewBox="0 0 105 105"><path fill="#187cd1" d="M102.2,60.3c0.9,8.2-4.5,15.7-16.2,22.6c-9.8,5.7-21.3,8.7-34.6,8.8c-13.2,0.1-24.9-2.7-34.9-8.4
		c-10.1-5.8-15-12.6-15-20.3C1.6,55.1,6.4,48.4,16,42.8c9.6-5.6,21.1-8.7,34.5-9.1l3.6,11c-5.6,0.2-10.2,0.8-13.7,1.7
		c-8,2-18.2,7.3-18.1,15.7c0,4.5,3.2,8.5,9.5,12.1c6.6,3.8,13.6,5.6,21.1,5.6c7.6,0,13.9-1.5,19.1-4.5c5.1-3,8.4-6.1,9.9-9.3
		L63.2,55.4l15-8.8L102.2,60.3z"/><path fill="#e97478" d="M62.1,47.1l0.1-23.2c-6.9,0.3-13.9,1.3-19.8,4.9c-9.1,5.5-6.4,7.2-6.9,32.8C35.4,51,51.5,47.5,62.1,47.1z"/><polygon fill="#ec767a" points="85.3 41.8 85.3 65 69.7 56 69.8 32.9"/><path fill="#24b9e2" d="M102.3,40.2c-1.8,13.2-24.1,24.4-47.6,22.9c-15.1-1-36.6-9.4-36.5-23.9l-0.1,23.2c0,6.5,4.1,12.1,12.5,17
		c29.6,17,71.7,0.6,71.7-17.7l0.1-23.2C102.5,39,102.4,39.6,102.3,40.2z"/><path fill="#d7cc2b" d="M102.4,37c2,19-41.4,36.5-71.7,19.2c-17.4-10-16.1-24.7-0.4-33.9c8-4.7,17.6-7.2,28.9-7.6l3,9.2
		c-4.7,0.2-8.5,0.7-11.5,1.4c-15.3,3.9-21.3,15.2-7.2,23.3c5.5,3.1,11.3,4.7,17.6,4.7c6.3,0,11.7-1.2,16-3.8
		c4.3-2.5,7.1-5.1,8.2-7.8l-15.5-8.9l12.5-7.3L102.4,37z"/><path fill="#231f20" d="M102.8,35.8L82.8,24.3c-0.4-0.2-0.8-0.2-1.2,0l-12.5,7.3c0,0,0,0,0,0c-0.4,0.2-0.6,0.6-0.6,1l-0.1,18.6
		c-2.2,0.5-4.6,0.7-7,0.7c-4.2,0-8.3-0.7-12.1-2.1c3.9-1.2,7.8-1.6,12.7-1.8c0.6,0,1.1-0.5,1.1-1.2l0.1-23.2c0,0,0,0,0-0.1
		c0,0,0,0,0-0.1c0-0.1,0-0.1,0-0.2c0,0,0,0,0,0l-3-9.2c-0.2-0.5-0.6-0.8-1.1-0.8C41.9,13.9,17,22.1,16.9,39V39c0,0,0,0,0,0
		l-0.1,23.1c-0.1,15.5,23,25.4,42.4,25.4c23.4,0,42.9-13.3,43.9-23.5c0.4-2.3,0.3-25.8,0.3-25.9C103.5,37.7,103.5,36.2,102.8,35.8z
		 M70.8,34.7c17.4,9.9,11.7,6.7,12.8,7.4c-1.7,2.7-6.5,6.8-12.9,8.6L70.8,34.7z M46.1,48.5c-18.8-9-8-22.1,14.7-23.6l-0.1,20.8
		C55.3,46.1,50.9,46.7,46.1,48.5z M58.2,15.7l2.3,6.9c-10.9,0.6-26.3,4.8-26.2,15.6c0.1,10,16.6,16,27.2,16
		c12.9,0,22.3-6.8,24.8-12.2c0.2-0.5,0-1.2-0.5-1.5l0,0c-1.4-0.8,5.1,2.9-13.8-7.9l10.2-6l19,10.9c0.8,14.5-23.9,23.4-38.7,24.3
		C45,62.6,19.1,54.3,19.2,39C19.3,23.8,43,16.4,58.2,15.7z M100.9,63.8c-2.1,10.1-20.3,21.4-41.6,21.4c-19.1,0-40.2-9.7-40.1-23.1
		l0-14.9C26.6,59.6,47.7,65,62.5,64.1c19.4-0.9,33.8-10.1,38.6-18C101,57.6,101.4,59.1,100.9,63.8z"/></svg>