<svg xmlns="http://www.w3.org/2000/svg" xmlns:xlink="http://www.w3.org/1999/xlink" version="1.1" x="0px" y="0px" viewBox="0 0 100 125" style="enable-background:new 0 0 100 100;" xml:space="preserve"><path d="M87.9746094,76.3193359c2.2324219-1.7080078,2.6933594-4.8491211,1.0517578-7.1508789  c-1.6523438-2.3168945-4.7988281-2.8837891-7.1630859-1.2875977c-0.3222656,0.2172852-0.6660156,0.4389648-1.0292969,0.6640625  c2.9746094-8.059082,4.1806641-15.9560547,3.5878906-23.5141602c-0.2275391-2.8979492-2.6962891-5.1674805-5.6748047-5.1674805  c-1.5449219,0-2.984375,0.6132812-4.0537109,1.7270508c-1.0771484,1.1220703-1.6367188,2.5981445-1.5732422,4.1577148  c0.0878906,2.1606445-0.0253906,4.7158203-0.3300781,7.456543c-1.7666016-0.8662109-3.9003906-2.0014648-5.7080078-3.2202148  c-2.3642578-1.59375-5.5117188-1.027832-7.1640625,1.2875977c-1.640625,2.3017578-1.1787109,5.4428711,1.0517578,7.1508789  c2.1835938,1.6713867,5.6357422,3.7338867,10.0410156,4.4692383c-1.6611328,5.7548828-6.5683594,14.9238281-16.0322266,18.2348633  c-1.5791016-9.9262695-0.0019531-19.5341797,1.5244141-28.8374023c0.9550781-5.8203125,1.8564453-11.3183594,1.9199219-16.5683594  c0.0195312-1.6137695-0.0742188-3.2695312-0.2792969-4.9316406c4.671875-2.1015625,8.5498047-5.5883789,11.0253906-8.2055664  c1.8125-1.9160156,1.7822266-4.8764648-0.0693359-6.7402344c-1.6474609-1.6591797-4.2373047-1.9008789-6.15625-0.5786133  c-2.8994141,1.9980469-5.6445312,3.5644531-7.6757812,4.6367188c-1.2880859-3.2011719-2.6943359-5.7299805-3.6894531-7.3442383  C50.5908203,10.9560547,48.8808594,10,47.0029297,10c-1.9511719,0-3.6943359,1.0102539-4.6650391,2.703125  c-0.9638672,1.6831055-0.9560547,3.6865234,0.0244141,5.3583984c2.2802734,3.8925781,3.8212891,7.8388672,4.5878906,11.7490234  c-2.4199219-0.2255859-6.7041016-0.762207-11.5478516-1.9931641c-2.2548828-0.5737305-4.6035156,0.5517578-5.5732422,2.6787109  c-1.0898438,2.390625-0.0908203,5.1777344,2.2734375,6.3452148c3.7216797,1.8374023,9.1816406,3.9262695,14.7666016,3.9262695  c0.0820312,0,0.1640625-0.0004883,0.2470703-0.0014648c-0.5185547,3.8994141-1.4755859,7.9516602-2.4833984,12.2192383  c-2.1005859,8.8930664-4.2685547,18.0688477-2.9863281,27.6611328C36.1494141,77.2578125,30.734375,68.5654297,28.9990234,62.890625  c4.4003906-0.7368164,7.8496094-2.7978516,10.0302734-4.4677734c2.2314453-1.7080078,2.6933594-4.8491211,1.0517578-7.1513672  c-1.6523438-2.3154297-4.7998047-2.8823242-7.1630859-1.2871094c-1.8056641,1.2167969-3.9394531,2.3525391-5.7080078,3.2202148  c-0.3046875-2.7407227-0.4179688-5.2958984-0.3300781-7.4570312c0.0634766-1.559082-0.4960938-3.0351562-1.5732422-4.1572266  c-1.0693359-1.1137695-2.5087891-1.7270508-4.109375-1.7270508c-2.9228516,0-5.3916016,2.2695312-5.6191406,5.1674805  c-0.5927734,7.5581055,0.6132812,15.4555664,3.5878906,23.5141602c-0.3623047-0.2250977-0.7060547-0.4467773-1.0292969-0.6640625  c-2.3632812-1.5952148-5.5097656-1.027832-7.1640625,1.2875977c-1.6416016,2.3017578-1.1787109,5.4428711,1.0527344,7.1508789  c2.8076172,2.1489258,7.3349609,4.6762695,13.1494141,4.7402344C27.0322876,84.1786499,28.7251587,86.5450439,29.8330688,88H11  c-0.5527344,0-1,0.4477539-1,1s0.4472656,1,1,1h78c0.5527344,0,1-0.4477539,1-1s-0.4472656-1-1-1H70.1669312  c1.1079102-1.4549561,2.8007812-3.8213501,4.6582642-6.9404297C80.6396484,80.9951172,85.1679688,78.4682617,87.9746094,76.3193359z   M73.3935547,79.5517578C70.7930908,83.9890137,68.4228516,87.0166016,67.6220703,88H32.3779297  c-0.8007812-0.9833984-3.1710205-4.0109863-5.7714844-8.4482422c-0.1826172-0.3115234-0.5429688-0.5043945-0.8798828-0.4941406  c-5.5732422,0.0991211-9.8378906-2.2988281-12.4863281-4.3261719c-1.3701172-1.0493164-1.6513672-2.9829102-0.6386719-4.4013672  c1.0175781-1.4272461,2.9560547-1.7763672,4.4179688-0.7910156c1.0332031,0.6962891,2.2587891,1.4282227,3.6445312,2.175293  c0.3720703,0.199707,0.8300781,0.1455078,1.1455078-0.1386719c0.3134766-0.2836914,0.4150391-0.7348633,0.2529297-1.1254883  c-3.6132812-8.6894531-5.1240234-17.1894531-4.4902344-25.2631836c0.1464844-1.8637695,1.7382812-3.3237305,3.6806641-3.3237305  c0.9951172,0,1.9228516,0.3950195,2.6113281,1.112793c0.6972656,0.7250977,1.0585938,1.6806641,1.0175781,2.6899414  c-0.1074219,2.6308594,0.0693359,5.8022461,0.5117188,9.1723633c0.0410156,0.3164062,0.2314453,0.59375,0.5107422,0.7470703  c0.2792969,0.1538086,0.6142578,0.1640625,0.9042969,0.0288086c1.9921875-0.9321289,4.8632812-2.3779297,7.2265625-3.9716797  c1.4589844-0.9829102,3.3994141-0.6362305,4.4179688,0.7905273c1.0117188,1.4194336,0.7314453,3.3525391-0.6396484,4.4018555  c-2.1660156,1.6582031-5.6914062,3.737793-10.1865234,4.2265625c-0.2851562,0.0307617-0.5429688,0.1831055-0.7080078,0.4169922  c-0.1660156,0.234375-0.2226562,0.5283203-0.15625,0.8076172c1.5263672,6.4516602,8.6074219,18.1464844,15.8007812,21.0708008  c0.3388672,0.137207,0.7246094,0.0805664,1.0078125-0.1503906c0.2832031-0.2304688,0.4189453-0.597168,0.3525391-0.9560547  c-1.8115234-9.8935547,0.4589844-19.5078125,2.6552734-28.8056641c1.1220703-4.7509766,2.1826172-9.2387695,2.6660156-13.6132812  c0.0322266-0.2944336-0.0673828-0.5878906-0.2724609-0.8017578c-0.2050781-0.2133789-0.4931641-0.3276367-0.7890625-0.3056641  c-5.9453125,0.3994141-12.0664062-2.1318359-15.1953125-3.6757812c-1.3896484-0.6865234-1.9775391-2.3212891-1.3388672-3.7226562  c0.5673828-1.2470703,1.9404297-1.9047852,3.2607422-1.5698242c6.0302734,1.5322266,11.2246094,2.0175781,13.1777344,2.1552734  c0.3037109,0.019043,0.6005859-0.0961914,0.8056641-0.3203125c0.2060547-0.2236328,0.2988281-0.5288086,0.2529297-0.8295898  c-0.703125-4.5698242-2.4052734-9.1831055-5.0585938-13.7104492c-0.6132812-1.0458984-0.6181641-2.2993164-0.0146484-3.3530273  C44.6826172,12.6347656,45.7783203,12,47.0029297,12c1.1787109,0,2.2519531,0.6005859,2.8720703,1.6069336  c1.0556641,1.7119141,2.59375,4.4975586,3.9287109,8.046875c0.0996094,0.2661133,0.3085938,0.4770508,0.5732422,0.5800781  c0.2675781,0.1030273,0.5634766,0.0874023,0.8154297-0.0410156c2.1279297-1.0825195,5.3964844-2.8769531,8.8857422-5.2807617  c1.1220703-0.7739258,2.6376953-0.6298828,3.6035156,0.3413086c1.0849609,1.0922852,1.0996094,2.8300781,0.0341797,3.9560547  C65.25,23.815918,61.3320312,27.3266602,56.671875,29.2460938c-0.4228516,0.1743164-0.6738281,0.6137695-0.609375,1.0668945  c0.2607422,1.8154297,0.3818359,3.6269531,0.3603516,5.3837891c-0.0615234,5.0996094-0.9511719,10.5249023-1.8935547,16.269043  c-1.6113281,9.8217773-3.2783203,19.9785156-1.3251953,30.6455078c0.0507812,0.2783203,0.2177734,0.5224609,0.4580078,0.6708984  c0.2421875,0.1489258,0.5341797,0.1884766,0.8056641,0.1088867c11.6816406-3.4125977,17.2949219-14.8720703,18.7695312-21.1049805  c0.0664062-0.2792969,0.0097656-0.5732422-0.15625-0.8076172c-0.1650391-0.2338867-0.4228516-0.3862305-0.7080078-0.4169922  c-4.4951172-0.4887695-8.0205078-2.5683594-10.1875-4.2265625c-1.3701172-1.0493164-1.6503906-2.9824219-0.6386719-4.4013672  c1.015625-1.4262695,2.9560547-1.7758789,4.4179688-0.7910156c2.3671875,1.5966797,5.2363281,3.0410156,7.2265625,3.9716797  c0.2890625,0.1347656,0.625,0.1240234,0.9042969-0.0288086c0.2802734-0.1533203,0.4697266-0.4306641,0.5107422-0.7470703  c0.4423828-3.3701172,0.6191406-6.5415039,0.5117188-9.171875c-0.0410156-1.0097656,0.3203125-1.965332,1.0175781-2.6904297  c0.6884766-0.7177734,1.6162109-1.112793,2.6669922-1.112793c1.8867188,0,3.4785156,1.4599609,3.625,3.3237305  c0.6337891,8.0737305-0.8769531,16.5732422-4.4902344,25.2636719c-0.1621094,0.390625-0.0605469,0.8417969,0.2529297,1.1254883  c0.3144531,0.284668,0.7724609,0.3398438,1.1455078,0.1381836c1.3876953-0.7480469,2.6132812-1.4799805,3.6445312-2.175293  c1.4599609-0.9858398,3.4003906-0.637207,4.4169922,0.7910156c1.0126953,1.4189453,0.7324219,3.3520508-0.6376953,4.4013672  c-2.6494141,2.0268555-6.9960938,4.425293-12.4863281,4.3261719C73.9267578,79.043457,73.5761719,79.2402344,73.3935547,79.5517578z  "/><path d="M83.6777344,25.065918C87.1640625,25.065918,90,22.2299805,90,18.7436523s-2.8359375-6.3222656-6.3222656-6.3222656  s-6.3222656,2.8359375-6.3222656,6.3222656S80.1914062,25.065918,83.6777344,25.065918z M83.6777344,14.4213867  C86.0615234,14.4213867,88,16.3603516,88,18.7436523s-1.9384766,4.3222656-4.3222656,4.3222656  s-4.3222656-1.9389648-4.3222656-4.3222656S81.2939453,14.4213867,83.6777344,14.4213867z"/><path d="M18.4785156,24.6171875c-2.8916016,0-5.2441406,2.3525391-5.2441406,5.2446289  c0,2.8916016,2.3525391,5.2441406,5.2441406,5.2441406s5.2441406-2.3525391,5.2441406-5.2441406  C23.7226562,26.9697266,21.3701172,24.6171875,18.4785156,24.6171875z M18.4785156,33.105957  c-1.7890625,0-3.2441406-1.4550781-3.2441406-3.2441406s1.4550781-3.2446289,3.2441406-3.2446289  s3.2441406,1.4555664,3.2441406,3.2446289S20.2675781,33.105957,18.4785156,33.105957z"/><path d="M29.2890625,22.4741211c3.4394531,0,6.2373047-2.7978516,6.2373047-6.2368164  C35.5263672,12.7978516,32.7285156,10,29.2890625,10s-6.2373047,2.7978516-6.2373047,6.2373047  C23.0517578,19.6762695,25.8496094,22.4741211,29.2890625,22.4741211z M29.2890625,12  c2.3369141,0,4.2373047,1.9008789,4.2373047,4.2373047s-1.9003906,4.2368164-4.2373047,4.2368164  s-4.2373047-1.9003906-4.2373047-4.2368164S26.9521484,12,29.2890625,12z"/><path d="M68.9111328,31.21875c0,3.1743164,2.5820312,5.7568359,5.7568359,5.7568359s5.7568359-2.5825195,5.7568359-5.7568359  s-2.5820312-5.7568359-5.7568359-5.7568359S68.9111328,28.0444336,68.9111328,31.21875z M78.4248047,31.21875  c0,2.0712891-1.6855469,3.7568359-3.7568359,3.7568359s-3.7568359-1.6855469-3.7568359-3.7568359  s1.6855469-3.7568359,3.7568359-3.7568359S78.4248047,29.1474609,78.4248047,31.21875z"/><text x="0" y="115" fill="#000000" font-size="5px" font-weight="bold" font-family="'Helvetica Neue', Helvetica, Arial-Unicode, Arial, Sans-serif">Created by Made x Made</text><text x="0" y="120" fill="#000000" font-size="5px" font-weight="bold" font-family="'Helvetica Neue', Helvetica, Arial-Unicode, Arial, Sans-serif">from the Noun Project</text></svg>